<!-- SVG Icon for Chrome Extension -->
<svg width="128" height="128" viewBox="0 0 128 128" xmlns="http://www.w3.org/2000/svg">
  <!-- Background circle -->
  <circle cx="64" cy="64" r="60" fill="#1a73e8" stroke="#1557b0" stroke-width="2"/>
  
  <!-- Brain icon -->
  <g transform="translate(64, 64)">
    <!-- Left hemisphere -->
    <path d="M-20,-15 C-25,-20 -30,-15 -30,-8 C-30,0 -25,8 -20,12 C-15,16 -10,18 -5,18 L-5,25 C-5,30 0,32 5,32 C10,32 15,30 15,25 L15,18 C20,18 25,16 30,12 C35,8 40,0 40,-8 C40,-15 35,-20 30,-15 C25,-10 20,-5 15,-5 C10,-5 5,-8 0,-8 C-5,-8 -10,-5 -15,-5 C-20,-5 -25,-10 -30,-15"
          fill="none" stroke="white" stroke-width="2.5" stroke-linejoin="round"/>
    
    <!-- Right hemisphere -->
    <path d="M20,-15 C25,-20 30,-15 30,-8 C30,0 25,8 20,12 C15,16 10,18 5,18 L5,25 C5,30 0,32 -5,32 C-10,32 -15,30 -15,25 L15,18 C20,18 25,16 30,12 C35,8 40,0 40,-8 C40,-15 35,-20 30,-15 C25,-10 20,-5 15,-5 C10,-5 5,-8 0,-8 C-5,-8 -10,-5 -15,-5 C-20,-5 -25,-10 -30,-15"
          fill="none" stroke="white" stroke-width="2.5" stroke-linejoin="round" transform="scale(-1,1)"/>
    
    <!-- Center connection -->
    <line x1="0" y1="-15" x2="0" y2="15" stroke="white" stroke-width="2"/>
    
    <!-- Spark nodes -->
    <circle cx="-10" cy="-5" r="2" fill="white"/>
    <circle cx="10" cy="-5" r="2" fill="white"/>
    <circle cx="-8" cy="8" r="2" fill="white"/>
    <circle cx="8" cy="8" r="2" fill="white"/>
    <circle cx="0" cy="0" r="3" fill="white"/>
  </g>
  
  <!-- Sparkle effects -->
  <g opacity="0.8">
    <path d="M20,20 L22,26 L28,24 L22,22 Z" fill="white"/>
    <path d="M100,25 L102,31 L108,29 L102,27 Z" fill="white"/>
    <path d="M25,100 L27,106 L33,104 L27,102 Z" fill="white"/>
    <path d="M95,95 L97,101 L103,99 L97,97 Z" fill="white"/>
  </g>
</svg>